<svg xmlns="http://www.w3.org/2000/svg" fill="none" viewBox="0 0 49 49"><circle cx="24.5" cy="24.5" r="24.5" fill="#fff"/><path fill="#232D4B" d="M24.5 41.25c-.78 0-1.55-.05-2.32-.16-.56-.2-1.09-.4-1.58-.69a4.02 4.02 0 0 1-1.6-1.57 2.26 2.26 0 0 1-.1-1.95c.2-.42.6-.75 1.03-1.1.17-.15.36-.3.53-.47a5.84 5.84 0 0 0 1.74-4.67 4.1 4.1 0 0 0-1.91-3.16l-.1-.05a5.28 5.28 0 0 0-3.7-3.4 8.38 8.38 0 0 0-1.7-.14h-.39c-.64-.01-1.37-.06-1.85-.43a1.74 1.74 0 0 1-.67-1.2 1.72 1.72 0 0 1 .86-1.6c.5-.27 1.12-.23 1.83.14.35.2.7.4 1.02.64l.7.47c1.14.7 2.18.91 3.1.63a2.2 2.2 0 0 0 1.4-1.19c.26-.6.22-1.32-.13-2a5.3 5.3 0 0 0-1.06-1.29l-.09-.08a5.9 5.9 0 0 1-.88-.95h.63c.3-.01.71-.04 1.11-.2a1.9 1.9 0 0 0 1.22-1.6 2.16 2.16 0 0 0-.52-1.6 2.3 2.3 0 0 0-2.5-.61 2.75 2.75 0 0 0-1.75 2.24 7.68 7.68 0 0 1-3.8-2.97A16.7 16.7 0 0 1 24.5 7.74V6h.43-.43a18.5 18.5 0 1 0 0 37h.34-.33v-1.75ZM19 28.41c.07.43.02.86-.14 1.26a.74.74 0 0 1-.56.46 1.24 1.24 0 0 1-1.06-.32.85.85 0 0 1-.26-.42.78.78 0 0 1 .18-.64 1.4 1.4 0 0 1 1.1-.45c.26 0 .5.04.75.11Zm-.74-13.2c.13-.4.43-.76.8-.88.34-.12.75-.04.96.2.13.16.2.36.18.56a.51.51 0 0 1-.34.44c-.2.08-.45.1-.65.1-.33.02-.67 0-1-.04 0-.13.02-.26.05-.38Zm-.5 24.25c.09.18.19.35.3.5a16.75 16.75 0 0 1-6.03-26.65 8.97 8.97 0 0 0 4.94 3.46c.1.3.23.6.4.87.33.55.77.96 1.2 1.36l.08.08c.3.28.6.58.77.92.15.28.19.59.1.8a.84.84 0 0 1-.52.4c-.53.17-1.19 0-1.96-.47l-.65-.44c-.37-.26-.76-.5-1.17-.73-1.13-.59-2.22-.63-3.15-.12a3.06 3.06 0 0 0-.36 5.13c.77.6 1.74.7 2.67.71h.4c.5 0 .98.02 1.43.1.8.17 1.6.75 2.16 1.52a2.76 2.76 0 0 0-2.27.95 2.17 2.17 0 0 0-.49 1.84c.1.44.34.83.67 1.13a2.63 2.63 0 0 0 2.31.68 2.15 2.15 0 0 0 1.56-1.29c.1-.24.18-.49.22-.75.25.4.4.85.44 1.32a4.46 4.46 0 0 1-1.3 3.51l-.48.41c-.49.42-1.05.89-1.38 1.58a3.6 3.6 0 0 0 .11 3.18Z"/><path fill="#25BFB0" d="M42.59 20.6A18.5 18.5 0 0 0 24.93 6h-.43v1.74c1.7 0 3.4.26 5.03.78a5.96 5.96 0 0 1-.38 2.67l-.04.1a5.95 5.95 0 0 1-2.55 2.86.34.34 0 0 0-.14.44l.15.31a.35.35 0 0 0 .47.15 7 7 0 0 0 3.02-3.37.34.34 0 0 1 .43-.2c.76.26 1.5.65 2.2 1.03a.34.34 0 0 0 .46-.13l.16-.3a.34.34 0 0 0-.13-.46 14 14 0 0 0-2.46-1.14.34.34 0 0 1-.23-.37c.07-.4.1-.82.08-1.23a14.21 14.21 0 0 1 1.85.85 16.8 16.8 0 0 1 4.98 4.07.39.39 0 0 0-.02.08c-.35 1.55-.79 2.88-1.79 3.75-.44.36-.94.64-1.5.8a5.5 5.5 0 0 1-3.51-.08.65.65 0 0 0-.43 1.22c1.4.5 2.92.54 4.34.1a5.53 5.53 0 0 0 1.95-1.06 6.92 6.92 0 0 0 1.96-3.47A16.63 16.63 0 0 1 40.9 21c-.17.18-.37.32-.58.42-.3.14-.66.18-.97.2-.37.03-.74.03-1.13.04-.6 0-1.23 0-1.85.1-1.3.2-2.32.78-2.88 1.64-.22.32-.37.68-.46 1.06a.52.52 0 0 1-.69.36 5.31 5.31 0 0 0-2.56-.34.52.52 0 0 0-.43.65l.04.12a.51.51 0 0 0 .55.38 4.1 4.1 0 0 1 1.98.27c.25.09.48.2.71.33l.28.45c0 .6 0 1.2-.13 1.72a.52.52 0 0 0 .29.6l.11.05a.52.52 0 0 0 .71-.34c.2-.72.18-1.47.17-2.2-.03-.93-.04-1.82.39-2.48.51-.78 1.53-1.04 2.1-1.13.54-.08 1.1-.08 1.68-.09.4 0 .8-.01 1.2-.04a3.86 3.86 0 0 0 1.69-.47 16.84 16.84 0 0 1-.08 4.9.49.49 0 0 0-.36 0c-1.12.44-2.45 1.08-3.18 2.28-.3.5-.5 1.07-.58 1.65a5.38 5.38 0 0 0 .62 3.38c.05.09.13.16.23.2a16.85 16.85 0 0 1-2.82 2.88 8.7 8.7 0 0 0-.35-1.13 4.07 4.07 0 0 0-2.21-2.47 3.39 3.39 0 0 0-1.13-.22.52.52 0 0 1-.5-.6c.13-.91.05-1.8-.22-2.58a.52.52 0 0 0-.73-.27l-.1.06a.51.51 0 0 0-.25.62c.21.64.27 1.33.16 2-.05.25-.1.5-.18.76l-.38.36c-.6.15-1.17.27-1.7.25a.52.52 0 0 0-.54.4l-.02.13a.52.52 0 0 0 .48.62c.75.04 1.48-.14 2.2-.31.9-.22 1.76-.43 2.5-.14.87.33 1.34 1.27 1.54 1.8.18.48.32.97.42 1.47a16.7 16.7 0 0 1-9.44 2.91V43h.34a18.4 18.4 0 0 0 10.57-3.56 18.52 18.52 0 0 0 7.18-18.85Zm-4.22 13.29a4.33 4.33 0 0 1-.44-2.6c.05-.45.2-.88.43-1.27.5-.84 1.4-1.34 2.47-1.78a16.6 16.6 0 0 1-2.46 5.65Z"/></svg>