<svg width="131" height="131" viewBox="0 0 131 131" fill="none" xmlns="http://www.w3.org/2000/svg">
<path d="M51.4121 83.589C51.2561 84.1869 51.0563 84.7729 50.8142 85.3423L51.4121 83.589ZM51.4121 83.589C51.9782 84.706 52.3271 85.9233 52.4373 87.1761L52.4377 87.1801C52.8545 91.3694 51.0803 96.1309 48.0184 99.0196C47.549 99.4611 47.037 99.8959 46.4888 100.361L46.4116 100.427L46.4107 100.428L46.3613 100.469C44.6865 101.883 42.7193 103.542 41.5528 105.984L41.5527 105.984C39.9285 109.392 40.0841 113.602 41.9414 117.259C42.081 117.537 42.2293 117.811 42.3862 118.079C22.1781 109.185 8.08245 88.9842 8.08245 65.4915L8.08244 65.4909C8.05951 51.4759 13.1827 37.9456 22.4707 27.4641C26.6052 33.1156 32.5183 37.2186 39.2646 39.1119C39.5953 40.1232 40.0378 41.0948 40.584 42.0084L40.5843 42.009C41.763 43.9721 43.3225 45.4222 44.7938 46.7903L44.8004 46.7964L44.8009 46.7969L45.0871 47.0642C45.0873 47.0643 45.0874 47.0644 45.0875 47.0645C46.1105 48.0281 47.1103 49.0158 47.6818 50.1428L47.6818 50.1428L47.6843 50.1475C48.164 51.0593 48.2408 51.9972 47.991 52.5787C47.765 53.0838 47.1704 53.5765 46.4134 53.8136C44.7539 54.3175 42.5897 53.8302 39.956 52.1914L39.9546 52.1905C39.2483 51.7556 38.5563 51.2781 37.8285 50.7759L37.7268 50.7058C36.4292 49.7736 35.0747 48.9231 33.6712 48.1594L33.6712 48.1593L33.6647 48.1559C29.6726 46.0917 25.7835 45.9241 22.4735 47.7365L22.4734 47.7365C20.8745 48.6127 19.5207 49.8757 18.536 51.4102C17.5512 52.9447 16.9668 54.7016 16.8363 56.5202C16.7058 58.3389 17.0333 60.1612 17.7889 61.8206C18.5442 63.4795 19.7033 64.9226 21.1601 66.018C23.9237 68.1446 27.3744 68.4893 30.6065 68.5467H30.6127C31.0647 68.5467 31.5082 68.5467 31.9504 68.5654L31.9578 68.5657H31.9652C33.7127 68.5657 35.3391 68.5962 36.8451 68.9035C39.3138 69.4179 41.8173 71.1033 43.6429 73.421C40.88 73.4942 38.1963 74.493 36.2435 76.8195C34.6521 78.7113 34.005 81.2002 34.5082 83.4827L34.5093 83.4872C34.8771 85.056 35.713 86.4759 36.9063 87.5586L51.4121 83.589ZM65.8629 123.271L65.8624 122.921H65.5129H65.496C62.8461 122.92 60.1992 122.737 57.5744 122.373C55.6621 121.696 53.8765 121.007 52.216 120.051C49.7192 118.595 47.8699 116.762 46.8495 114.764C45.767 112.637 45.6695 110.181 46.528 108.365C47.1789 106.998 48.4828 105.886 49.9562 104.655L49.9572 104.654C50.0068 104.612 50.0567 104.57 50.1067 104.528C50.6649 104.058 51.251 103.565 51.8051 103.038C56.117 98.9609 58.517 92.5314 57.9197 86.6255C57.4396 81.8676 55.0433 77.8938 51.1544 75.4813L51.1509 75.4791L50.9423 75.3531C50.6519 74.5477 50.3057 73.7634 49.9061 73.006C47.3983 68.2334 42.7223 64.4934 37.9416 63.5126C35.8894 63.0811 33.8872 63.065 31.9819 63.0544H31.98C31.5552 63.0544 31.1122 63.0544 30.6895 63.0357L30.6895 63.0356L30.68 63.0354C29.5705 63.0164 28.407 62.9684 27.3223 62.7722C26.2365 62.5757 25.2563 62.2351 24.4979 61.6499L24.4974 61.6495C23.8847 61.1785 23.3753 60.5866 23.001 59.9105C22.6277 59.2365 22.3966 58.4931 22.3218 57.7263C22.2655 56.6966 22.4957 55.6714 22.9869 54.7647C23.4788 53.8567 24.2132 53.1031 25.1082 52.5879C26.7138 51.6977 28.6991 51.8087 31.0932 53.0513C32.2938 53.7116 33.4532 54.4441 34.5651 55.2449L34.565 55.245L34.5728 55.2503C34.7193 55.3499 34.8671 55.4511 35.0162 55.5532C35.6619 55.9953 36.3327 56.4546 37.0334 56.8806C40.9819 59.3213 44.6745 60.0929 47.9982 59.0847L47.9984 59.0847C50.2945 58.3868 52.126 56.8251 53.0238 54.7843L53.0242 54.7833C53.9762 52.6005 53.8045 49.9855 52.5741 47.6034L52.5738 47.6029C51.5832 45.6935 50.1045 44.2278 48.8369 43.0364L48.837 43.0364L48.8315 43.0314L48.5353 42.7646C47.569 41.8617 46.668 41.0164 45.9549 40.1117C46.4517 40.1219 46.9505 40.1202 47.4495 40.0999L47.4513 40.0998C48.5178 40.0508 49.957 39.9349 51.3851 39.3663L51.3862 39.3658C53.8926 38.3579 55.5448 36.1953 55.797 33.5711L55.7971 33.5699C55.8938 32.5243 55.7782 31.47 55.4572 30.4702C55.1361 29.4704 54.6163 28.5459 53.9289 27.7522L53.9279 27.751C51.7744 25.2866 48.1707 24.4124 44.9497 25.5601C42.1583 26.551 39.9052 29.0321 39.0166 32.0087L39.0156 32.0122C38.9079 32.3872 38.8189 32.7673 38.7489 33.151C33.8411 31.3156 29.3361 27.8703 26.3585 23.4472C36.976 13.5389 50.966 8.03402 65.4955 8.05531H65.496H65.5129H65.8629V7.70531V2.04385H65.8638H65.8666H65.8695H65.8724H65.8753H65.8782H65.8811H65.8839H65.8868H65.8897H65.8926H65.8955H65.8983H65.9012H65.9041H65.907H65.9099H65.9128H65.9156H65.9185H65.9214H65.9243H65.9272H65.9301H65.9329H65.9358H65.9387H65.9416H65.9445H65.9473H65.9502H65.9531H65.956H65.9589H65.9618H65.9646H65.9675H65.9704H65.9733H65.9762H65.9791H65.9819H65.9848H65.9877H65.9906H65.9935H65.9964H65.9992H66.0021H66.005H66.0079H66.0108H66.0137H66.0165H66.0194H66.0223H66.0252H66.0281H66.031H66.0338H66.0367H66.0396H66.0425H66.0454H66.0482H66.0511H66.054H66.0569H66.0598H66.0627H66.0656H66.0684H66.0713H66.0742H66.0771H66.08H66.0828H66.0857H66.0886H66.0915H66.0944H66.0973H66.1002H66.103H66.1059H66.1088H66.1117H66.1146H66.1175H66.1203H66.1232H66.1261H66.129H66.1319H66.1348H66.1376H66.1405H66.1434H66.1463H66.1492H66.1521H66.155H66.1578H66.1607H66.1636H66.1665H66.1694H66.1723H66.1751H66.178H66.1809H66.1838H66.1867H66.1896H66.1925H66.1953H66.1982H66.2011H66.204H66.2069H66.2098H66.2127H66.2155H66.2184H66.2213H66.2242H66.2271H66.23H66.2329H66.2357H66.2386H66.2415H66.2444H66.2473H66.2502H66.2531H66.256H66.2588H66.2617H66.2646H66.2675H66.2704H66.2733H66.2762H66.2791H66.2819H66.2848H66.2877H66.2906H66.2935H66.2964H66.2993H66.3022H66.305H66.3079H66.3108H66.3137H66.3166H66.3195H66.3224H66.3253H66.3282H66.331H66.3339H66.3368H66.3397H66.3426H66.3455H66.3484H66.3513H66.3542H66.357H66.3599H66.3628H66.3657H66.3686H66.3715H66.3744H66.3773H66.3802H66.3831H66.386H66.3888H66.3917H66.3946H66.3975H66.4004H66.4033H66.4062H66.4091H66.412H66.4149H66.4178H66.4207H66.4235H66.4264H66.4293H66.4322H66.4351H66.438H66.4409H66.4438H66.4467H66.4496H66.4525H66.4554H66.4583H66.4612H66.4641H66.4669H66.4698H66.4727H66.4756H66.4785H66.4814H66.4843H66.4872H66.4901H66.493H66.4959H66.4988H66.5017H66.5046H66.5075H66.5104H66.5133H66.5162H66.5191H66.522H66.5249H66.5278H66.5307H66.5336H66.5365H66.5394H66.5422H66.5451H66.548H66.5509H66.5538H66.5567H66.5596H66.5625H66.5654H66.5683H66.5712H66.5741H66.577H66.5799H66.5828H66.5857H66.5886H66.5915H66.5944H66.5973H66.6002H66.6031H66.606H66.6089H66.6118H66.6147H66.6176H66.6205H66.6234H66.6263H66.6292H66.6321H66.6351H66.638H66.6409H66.6438H66.6467H66.6496H66.6525H66.6554H66.6583H66.6612H66.6641H66.667H66.6699H66.6728H66.6757H66.6786H66.6815H66.6844H66.6873H66.6902H66.6931H66.696H66.699H66.7019H66.7048H66.7077H66.7106H66.7135H66.7164H66.7193H66.7222H66.7251H66.728H66.7309H66.7338H66.7368H66.7397H66.7426H66.7455H66.7484H66.7513H66.7542H66.7571H66.76H66.7629H66.7659H66.7688H66.7717H66.7746H66.7775H66.7804H66.7833H66.7862H66.7891H66.7921H66.795H66.7979H66.8008H66.8037H66.8066H66.8095H66.8124H66.8154H66.8183H66.8212H66.8241H66.827H66.8299H66.8328H66.8358H66.8387H66.8416H66.8445H66.8474H66.8503H66.8533H66.8562H66.8591H66.862H66.8649H66.8679H66.8708H66.8737H66.8766H66.8795H66.8824H66.8854H66.8883H66.8912H66.8941H66.897H66.9H66.9029H66.9058H66.9087H66.9116H66.9146H66.9175H66.9204H66.9233H66.9263H66.9292H66.9321H66.935H66.9379H66.9409H66.9438H66.9467H66.9496H66.9526H66.9555H66.9584H66.9613H66.9643H66.9672H66.9701H66.973H66.976H66.9789H66.9818V1.69385V1.34385H66.9789H66.976H66.973H66.9701H66.9672H66.9643H66.9613H66.9584H66.9555H66.9526H66.9496H66.9467H66.9438H66.9409H66.9379H66.935H66.9321H66.9292H66.9263H66.9233H66.9204H66.9175H66.9146H66.9116H66.9087H66.9058H66.9029H66.9H66.897H66.8941H66.8912H66.8883H66.8854H66.8824H66.8795H66.8766H66.8737H66.8708H66.8679H66.8649H66.862H66.8591H66.8562H66.8533H66.8503H66.8474H66.8445H66.8416H66.8387H66.8358H66.8328H66.8299H66.827H66.8241H66.8212H66.8183H66.8154H66.8124H66.8095H66.8066H66.8037H66.8008H66.7979H66.795H66.7921H66.7891H66.7862H66.7833H66.7804H66.7775H66.7746H66.7717H66.7688H66.7659H66.7629H66.76H66.7571H66.7542H66.7513H66.7484H66.7455H66.7426H66.7397H66.7368H66.7338H66.7309H66.728H66.7251H66.7222H66.7193H66.7164H66.7135H66.7106H66.7077H66.7048H66.7019H66.699H66.696H66.6931H66.6902H66.6873H66.6844H66.6815H66.6786H66.6757H66.6728H66.6699H66.667H66.6641H66.6612H66.6583H66.6554H66.6525H66.6496H66.6467H66.6438H66.6409H66.638H66.6351H66.6321H66.6292H66.6263H66.6234H66.6205H66.6176H66.6147H66.6118H66.6089H66.606H66.6031H66.6002H66.5973H66.5944H66.5915H66.5886H66.5857H66.5828H66.5799H66.577H66.5741H66.5712H66.5683H66.5654H66.5625H66.5596H66.5567H66.5538H66.5509H66.548H66.5451H66.5422H66.5394H66.5365H66.5336H66.5307H66.5278H66.5249H66.522H66.5191H66.5162H66.5133H66.5104H66.5075H66.5046H66.5017H66.4988H66.4959H66.493H66.4901H66.4872H66.4843H66.4814H66.4785H66.4756H66.4727H66.4698H66.4669H66.4641H66.4612H66.4583H66.4554H66.4525H66.4496H66.4467H66.4438H66.4409H66.438H66.4351H66.4322H66.4293H66.4264H66.4235H66.4207H66.4178H66.4149H66.412H66.4091H66.4062H66.4033H66.4004H66.3975H66.3946H66.3917H66.3888H66.386H66.3831H66.3802H66.3773H66.3744H66.3715H66.3686H66.3657H66.3628H66.3599H66.357H66.3542H66.3513H66.3484H66.3455H66.3426H66.3397H66.3368H66.3339H66.331H66.3282H66.3253H66.3224H66.3195H66.3166H66.3137H66.3108H66.3079H66.305H66.3022H66.2993H66.2964H66.2935H66.2906H66.2877H66.2848H66.2819H66.2791H66.2762H66.2733H66.2704H66.2675H66.2646H66.2617H66.2588H66.256H66.2531H66.2502H66.2473H66.2444H66.2415H66.2386H66.2357H66.2329H66.23H66.2271H66.2242H66.2213H66.2184H66.2155H66.2127H66.2098H66.2069H66.204H66.2011H66.1982H66.1953H66.1925H66.1896H66.1867H66.1838H66.1809H66.178H66.1751H66.1723H66.1694H66.1665H66.1636H66.1607H66.1578H66.155H66.1521H66.1492H66.1463H66.1434H66.1405H66.1376H66.1348H66.1319H66.129H66.1261H66.1232H66.1203H66.1175H66.1146H66.1117H66.1088H66.1059H66.103H66.1002H66.0973H66.0944H66.0915H66.0886H66.0857H66.0828H66.08H66.0771H66.0742H66.0713H66.0684H66.0656H66.0627H66.0598H66.0569H66.054H66.0511H66.0482H66.0454H66.0425H66.0396H66.0367H66.0338H66.031H66.0281H66.0252H66.0223H66.0194H66.0165H66.0137H66.0108H66.0079H66.005H66.0021H65.9992H65.9964H65.9935H65.9906H65.9877H65.9848H65.9819H65.9791H65.9762H65.9733H65.9704H65.9675H65.9646H65.9618H65.9589H65.956H65.9531H65.9502H65.9473H65.9445H65.9416H65.9387H65.9358H65.9329H65.9301H65.9272H65.9243H65.9214H65.9185H65.9156H65.9128H65.9099H65.907H65.9041H65.9012H65.8983H65.8955H65.8926H65.8897H65.8868H65.8839H65.8811H65.8782H65.8753H65.8724H65.8695H65.8666H65.8638H65.8609H65.858H65.8551H65.8522H65.8493H65.8465H65.8436H65.8407H65.8378H65.8349H65.832H65.8292H65.8263H65.8234H65.8205H65.8176H65.8148H65.8119H65.809H65.8061H65.8032H65.8003H65.7974H65.7946H65.7917H65.7888H65.7859H65.783H65.7802H65.7773H65.7744H65.7715H65.7686H65.7657H65.7628H65.76H65.7571H65.7542H65.7513H65.7484H65.7456H65.7427H65.7398H65.7369H65.734H65.7311H65.7282H65.7254H65.7225H65.7196H65.7167H65.7138H65.7109H65.7081H65.7052H65.7023H65.6994H65.6965H65.6936H65.6908H65.6879H65.685H65.6821H65.6792H65.6763H65.6734H65.6706H65.6677H65.6648H65.6619H65.659H65.6561H65.6532H65.6504H65.6475H65.6446H65.6417H65.6388H65.6359H65.633H65.6302H65.6273H65.6244H65.6215H65.6186H65.6157H65.6128H65.61H65.6071H65.6042H65.6013H65.5984H65.5955H65.5926H65.5897H65.5869H65.584H65.5811H65.5782H65.5753H65.5724H65.5695H65.5667H65.5638H65.5609H65.558H65.5551H65.5522H65.5493H65.5464H65.5435H65.5407H65.5378H65.5349H65.532H65.5291H65.5262H65.5233H65.5204H65.5175H65.5147H65.5129H65.5118H65.5089H65.506H65.5031L65.5004 1.34385C65.482 1.34385 65.4637 1.34385 65.4453 1.34385H65.1629V1.34458C29.8753 1.51145 1.34385 30.1655 1.34385 65.4915C1.34385 100.819 29.8947 129.476 65.1719 129.655V129.656H65.5045H65.5067H65.509H65.5113H65.5136H65.5159H65.5182H65.5205H65.5214H65.5228H65.5251H65.5274H65.5297H65.532H65.5343H65.5366H65.5389H65.5412H65.5435H65.5458H65.548H65.5503H65.5526H65.5549H65.5572H65.5595H65.5618H65.5641H65.5664H65.5687H65.571H65.5733H65.5756H65.5779H65.5802H65.5825H65.5848H65.5871H65.5894H65.5917H65.594H65.5963H65.5986H65.6009H65.6031H65.6054H65.6077H65.61H65.6123H65.6146H65.6169H65.6192H65.6215H65.6238H65.6261H65.6284H65.6307H65.633H65.6353H65.6376H65.6399H65.6422H65.6445H65.6468H65.6491H65.6514H65.6537H65.656H65.6583H65.6606H65.6629H65.6652H65.6675H65.6698H65.6721H65.6744H65.6767H65.679H65.6813H65.6835H65.6858H65.6881H65.6904H65.6927H65.695H65.6973H65.6996H65.7019H65.7042H65.7065H65.7088H65.7111H65.7134H65.7157H65.718H65.7203H65.7226H65.7249H65.7272H65.7295H65.7318H65.7341H65.7364H65.7387H65.741H65.7433H65.7456H65.7479H65.7502H65.7525H65.7548H65.7571H65.7594H65.7617H65.764H65.7663H65.7686H65.7709H65.7732H65.7755H65.7778H65.7801H65.7824H65.7847H65.787H65.7893H65.7916H65.7939H65.7962H65.7985H65.8008H65.8031H65.8054H65.8077H65.81H65.8123H65.8146H65.8169H65.8192H65.8215H65.8238H65.8261H65.8284H65.8307H65.833H65.8353H65.8376H65.8399H65.8422H65.8445H65.8468H65.8491H65.8514H65.8537H65.856H65.8583H65.8606H65.8629H65.8652H65.8675H65.8698H65.8721H65.8744H65.8767H65.879H65.8813H65.8836H65.8859H65.8882H65.8905H65.8928H65.8951H65.8974H65.8997H65.902H65.9043H65.9066H65.9089H65.9112H65.9135H65.9158H65.9181H65.9204H65.9227H65.925H65.9273H65.9296H65.9319H65.9342H65.9365H65.9388H65.9411H65.9434H65.9457H65.948H65.9503H65.9527H65.9549H65.9573H65.9596H65.9619H65.9642H65.9665H65.9688H65.9711H65.9734H65.9757H65.978H65.9803H65.9826H65.9849H65.9872H65.9895H65.9918H65.9941H65.9964H65.9987H66.001H66.0033H66.0056H66.0079H66.0102H66.0125H66.0148H66.0171H66.0194H66.0217H66.024H66.0263H66.0286H66.0309H66.0332H66.0355H66.0378H66.0401H66.0424H66.0448H66.0471H66.0494H66.0517H66.054H66.0563H66.0586H66.0609H66.0632H66.0655H66.0678H66.0701H66.0724H66.0747H66.077H66.0793H66.0816H66.0839H66.0862H66.0885H66.0908H66.0931H66.0954H66.0977H66.1H66.1023H66.1046H66.1069H66.1092H66.1115H66.1139H66.1162H66.1185H66.1208H66.1231H66.1254H66.1277H66.13H66.1323H66.1346H66.1369H66.1392H66.1415H66.1438H66.1461H66.1484H66.1507H66.153H66.1553H66.1576H66.1599H66.1622H66.1645H66.1668H66.1692H66.1715H66.1738H66.1761H66.1784H66.1807H66.183H66.1853H66.1876H66.1899H66.1922H66.1945H66.1968H66.1991H66.2014H66.2037H66.206H66.2083H66.2106H66.2129H66.2152H66.2176H66.2199H66.2222H66.2245H66.2268H66.2291H66.2314H66.2337H66.236H66.2383H66.2406H66.2429H66.2452H66.2475H66.2498H66.2521H66.2544H66.2567H66.259H66.2613H66.2636H66.266H66.2683H66.2706H66.2729H66.2752H66.2775H66.2798H66.2821H66.2844H66.2867H66.289H66.2913H66.2936H66.2959H66.2982H66.3005H66.3028H66.3051H66.3074H66.3098H66.3121H66.3144H66.3167H66.319H66.3213H66.3236H66.3259H66.3282H66.3305H66.3328H66.3351H66.3374H66.3397H66.342H66.3443H66.3466H66.349H66.3513H66.3536H66.3559H66.3582H66.3605H66.3628H66.3651H66.3674H66.3697H66.372H66.3743H66.3766H66.3789H66.3812H66.3835H66.3858H66.3882H66.3905H66.3928H66.3951H66.3974H66.3997H66.402H66.4043H66.4066H66.4089H66.4112H66.4135H66.4158H66.4181H66.4204H66.4227H66.425H66.4274H66.4297H66.432H66.4343H66.4366H66.4389H66.4412H66.4435H66.4458H66.4481H66.4504H66.4527H66.455H66.4573H66.4596H66.4619H66.4643H66.4666H66.4689H66.4712H66.4735H66.4758H66.4781H66.4804H66.4827H66.485H66.4873H66.4896H66.4919H66.4942H66.4965H66.4988H66.5012H66.5035H66.5058H66.5081H66.5104H66.5127H66.515H66.5173H66.5196H66.5219H66.5242H66.5265H66.5288H66.5311H66.5334H66.5358H66.5381H66.5404H66.5427H66.545H66.5473H66.5496H66.5519H66.5542H66.5565H66.5588H66.5611H66.5634H66.5657H66.568H66.5704H66.5727H66.575H66.5773H66.5796H66.5819H66.5842H66.5865H66.5888H66.5911H66.5934H66.5957H66.598H66.6003H66.6026H66.6049H66.6073H66.6096H66.6119H66.6142H66.6165H66.6188H66.6211H66.6234H66.6257H66.628H66.6303H66.6326H66.6349H66.6372H66.6395H66.6419H66.6442H66.6465H66.6488H66.6511H66.6534H66.6557H66.658H66.6603H66.6626H66.6649H66.6672H66.6695H66.6718H66.6742H66.6765H66.6788H66.6811H66.6834V129.306V128.956H66.6811H66.6788H66.6765H66.6742H66.6718H66.6695H66.6672H66.6649H66.6626H66.6603H66.658H66.6557H66.6534H66.6511H66.6488H66.6465H66.6442H66.6419H66.6395H66.6372H66.6349H66.6326H66.6303H66.628H66.6257H66.6234H66.6211H66.6188H66.6165H66.6142H66.6119H66.6096H66.6073H66.6049H66.6026H66.6003H66.598H66.5957H66.5934H66.5911H66.5888H66.5865H66.5842H66.5819H66.5796H66.5773H66.575H66.5727H66.5704H66.568H66.5657H66.5634H66.5611H66.5588H66.5565H66.5542H66.5519H66.5496H66.5473H66.545H66.5427H66.5404H66.5381H66.5358H66.5334H66.5311H66.5288H66.5265H66.5242H66.5219H66.5196H66.5173H66.515H66.5127H66.5104H66.5081H66.5058H66.5035H66.5012H66.4988H66.4965H66.4942H66.4919H66.4896H66.4873H66.485H66.4827H66.4804H66.4781H66.4758H66.4735H66.4712H66.4689H66.4666H66.4643H66.4619H66.4596H66.4573H66.455H66.4527H66.4504H66.4481H66.4458H66.4435H66.4412H66.4389H66.4366H66.4343H66.432H66.4297H66.4274H66.425H66.4227H66.4204H66.4181H66.4158H66.4135H66.4112H66.4089H66.4066H66.4043H66.402H66.3997H66.3974H66.3951H66.3928H66.3905H66.3882H66.3858H66.3835H66.3812H66.3789H66.3766H66.3743H66.372H66.3697H66.3674H66.3651H66.3628H66.3605H66.3582H66.3559H66.3536H66.3513H66.349H66.3466H66.3443H66.342H66.3397H66.3374H66.3351H66.3328H66.3305H66.3282H66.3259H66.3236H66.3213H66.319H66.3167H66.3144H66.3121H66.3098H66.3074H66.3051H66.3028H66.3005H66.2982H66.2959H66.2936H66.2913H66.289H66.2867H66.2844H66.2821H66.2798H66.2775H66.2752H66.2729H66.2706H66.2683H66.266H66.2636H66.2613H66.259H66.2567H66.2544H66.2521H66.2498H66.2475H66.2452H66.2429H66.2406H66.2383H66.236H66.2337H66.2314H66.2291H66.2268H66.2245H66.2222H66.2199H66.2176H66.2152H66.2129H66.2106H66.2083H66.206H66.2037H66.2014H66.1991H66.1968H66.1945H66.1922H66.1899H66.1876H66.1853H66.183H66.1807H66.1784H66.1761H66.1738H66.1715H66.1692H66.1668H66.1645H66.1622H66.1599H66.1576H66.1553H66.153H66.1507H66.1484H66.1461H66.1438H66.1415H66.1392H66.1369H66.1346H66.1323H66.13H66.1277H66.1254H66.1231H66.1208H66.1185H66.1162H66.1139H66.1115H66.1092H66.1069H66.1046H66.1023H66.1H66.0977H66.0954H66.0931H66.0908H66.0885H66.0862H66.0839H66.0816H66.0793H66.077H66.0747H66.0724H66.0701H66.0678H66.0655H66.0632H66.0609H66.0586H66.0563H66.054H66.0517H66.0494H66.0471H66.0448H66.0424H66.0401H66.0378H66.0355H66.0332H66.0309H66.0286H66.0263H66.024H66.0217H66.0194H66.0171H66.0148H66.0125H66.0102H66.0079H66.0056H66.0033H66.001H65.9987H65.9964H65.9941H65.9918H65.9895H65.9872H65.9849H65.9826H65.9803H65.978H65.9757H65.9734H65.9711H65.9688H65.9665H65.9642H65.9619H65.9596H65.9573H65.9549H65.9527H65.9503H65.948H65.9457H65.9434H65.9411H65.9388H65.9365H65.9342H65.9319H65.9296H65.9273H65.925H65.9227H65.9204H65.9181H65.9158H65.9135H65.9112H65.9089H65.9066H65.9043H65.902H65.8997H65.8974H65.8951H65.8928H65.8905H65.8882H65.8859H65.8836H65.8813H65.879H65.8767H65.8744H65.8721H65.8709L65.8629 123.271ZM45.7312 83.1987L45.7294 83.2032C45.5915 83.5543 45.3659 83.8643 45.0743 84.1036C44.7826 84.3428 44.4345 84.5034 44.0631 84.5699C43.4617 84.6778 42.8434 84.6433 42.2577 84.4692C41.6721 84.2951 41.1353 83.9863 40.6904 83.5674L40.6906 83.5672L40.6805 83.5584C40.2963 83.2235 40.0208 82.7816 39.889 82.2894C39.7659 81.7273 39.9693 80.9661 40.4669 80.3834L40.4686 80.3814C41.3029 79.3897 42.5968 78.942 44.01 78.9418C44.7646 78.9432 45.5149 79.0516 46.2384 79.2635C46.4149 80.5958 46.2407 81.9524 45.7312 83.1987ZM46.8227 30.748L46.8236 30.7477C47.912 30.3637 49.1603 30.6489 49.7892 31.3645C50.1742 31.8295 50.3646 32.4254 50.3206 33.0276C50.2942 33.2983 50.1905 33.5557 50.022 33.7692C49.8528 33.9837 49.6252 34.1447 49.3667 34.233L49.3572 34.2363L49.3479 34.2401C48.7301 34.4914 47.935 34.5509 47.2501 34.5786C46.2161 34.6167 45.1809 34.5743 44.1539 34.4518C44.186 34.1503 44.244 33.8519 44.3274 33.5599C44.7245 32.2377 45.7122 31.1366 46.8227 30.748Z" fill="#06184D" stroke="#06184D" stroke-width="0.7"/>
<mask id="path-2-outside-1_1003_16" maskUnits="userSpaceOnUse" x="64.5049" y="0.693848" width="66" height="130" fill="black">
<rect fill="white" x="64.5049" y="0.693848" width="66" height="130"/>
<path d="M127.876 52.0186C127.397 49.7324 126.781 47.4769 126.033 45.2642C117.723 20.3717 94.5126 2.32886 66.9823 1.69385H65.5133V7.70531C71.396 7.70341 77.2442 8.60286 82.8545 10.3724C83.0247 12.3027 82.9214 14.2474 82.5476 16.1489C82.3108 17.3217 81.9708 18.4713 81.5316 19.5843C81.4935 19.7007 81.4448 19.815 81.4067 19.9208C79.641 24.0941 76.5445 27.5659 72.5997 29.7953C72.3406 29.9431 72.1472 30.1837 72.0584 30.4684C71.9697 30.7532 71.9921 31.061 72.1213 31.3299L72.6293 32.3883C72.7013 32.5316 72.8012 32.659 72.9233 32.7631C73.0454 32.8671 73.1871 32.9456 73.34 32.9939C73.4929 33.0423 73.6539 33.0595 73.8136 33.0445C73.9733 33.0296 74.1284 32.9828 74.2696 32.9069C78.927 30.2871 82.583 26.1953 84.6641 21.2734V21.2628C84.776 20.9807 84.993 20.7531 85.2694 20.6279C85.5458 20.5028 85.86 20.4898 86.1458 20.5918C88.7936 21.4851 91.3377 22.8271 93.7167 24.1437C93.8517 24.2192 94.0002 24.2674 94.1537 24.2855C94.3073 24.3037 94.4629 24.2913 94.6117 24.2493C94.7605 24.2072 94.8996 24.1362 95.021 24.0404C95.1423 23.9445 95.2436 23.8257 95.319 23.6907L95.8862 22.6641C95.9617 22.5287 96.0097 22.3797 96.0273 22.2258C96.045 22.0718 96.032 21.9158 95.9891 21.7669C95.9462 21.6179 95.8743 21.4789 95.7774 21.3579C95.6806 21.2369 95.5607 21.1362 95.4248 21.0617C92.796 19.6033 89.9831 18.1153 86.9585 17.1374C86.6993 17.0517 86.4785 16.8774 86.3349 16.6452C86.1913 16.4129 86.1341 16.1376 86.1733 15.8673C86.3908 14.4672 86.4836 13.0505 86.4505 11.6339C87.5363 12.0382 88.5904 12.4975 89.6466 12.978C90.7027 13.4585 91.7759 13.9962 92.8214 14.5613C99.3982 18.0941 105.23 22.8644 109.997 28.6099C109.963 28.6939 109.938 28.7812 109.921 28.8703C108.711 34.215 107.214 38.8188 103.76 41.7949C102.248 43.0589 100.496 44.0023 98.6082 44.5678C94.6408 45.8073 90.3762 45.7099 86.4696 44.2905C85.9148 44.1045 85.309 44.1441 84.7832 44.4008C84.2573 44.6576 83.8535 45.1109 83.659 45.6628C83.4644 46.2148 83.4948 46.8211 83.7434 47.3509C83.9921 47.8806 84.4391 48.2913 84.988 48.4943C89.8068 50.239 95.0645 50.3565 99.9564 48.8288C102.422 48.0805 104.71 46.8405 106.683 45.1838C110.368 41.996 112.258 37.4874 113.456 33.2074C117.596 39.3333 120.512 46.2017 122.045 53.4347C121.471 54.0326 120.795 54.5236 120.049 54.8847C119.023 55.3461 117.774 55.4985 116.701 55.5662C115.431 55.6615 114.161 55.6805 112.815 55.6911C110.74 55.7102 108.581 55.7377 106.442 56.0658C101.961 56.7452 98.4304 58.7519 96.4937 61.7068C95.764 62.8252 95.2347 64.0623 94.9295 65.3624C94.8696 65.6106 94.7573 65.8432 94.6001 66.0445C94.443 66.2457 94.2446 66.4111 94.0182 66.5293C93.7919 66.6476 93.5429 66.7161 93.2879 66.7302C93.033 66.7444 92.7779 66.7038 92.5399 66.6112C92.5399 66.6112 92.5399 66.6112 92.5209 66.5922C89.5746 65.4682 86.5056 65.0745 83.7032 65.4407C83.4521 65.4772 83.2117 65.5667 82.9978 65.7032C82.7839 65.8398 82.6015 66.0202 82.4626 66.2325C82.3237 66.4449 82.2315 66.6843 82.1922 66.935C82.1528 67.1856 82.1672 67.4418 82.2343 67.6865L82.3507 68.0887C82.462 68.4987 82.7168 68.855 83.0688 69.0928C83.4208 69.3306 83.8465 69.434 84.2683 69.3841C86.4082 69.1068 88.7788 69.4222 91.1007 70.3155C91.9414 70.6393 92.7589 71.0205 93.5474 71.4564C93.884 72.0046 94.1528 72.4449 94.4893 73.0016C94.5274 75.1183 94.5359 77.1482 94.066 78.9411C93.9572 79.3481 93.9959 79.7804 94.1752 80.1617C94.3546 80.5429 94.663 80.8483 95.046 81.0239L95.4396 81.206C95.6757 81.3119 95.932 81.3652 96.1907 81.3623C96.4495 81.3593 96.7045 81.3001 96.938 81.1887C97.1716 81.0774 97.3782 80.9165 97.5434 80.7174C97.7086 80.5182 97.8285 80.2855 97.8949 80.0354C98.5658 77.5313 98.5087 74.9405 98.4621 72.4258C98.3838 69.2106 98.3267 66.1688 99.8146 63.8849C101.588 61.1882 105.106 60.2971 107.038 59.9986C108.92 59.7214 110.829 59.6917 112.863 59.6727C114.207 59.6536 115.589 59.6346 116.98 59.5393C118.411 59.4419 120.1 59.2409 121.702 58.5021C122.085 58.3276 122.457 58.129 122.815 57.9073C123.144 60.4206 123.307 62.9527 123.304 65.4873C123.309 68.6021 123.058 71.712 122.555 74.786C122.151 74.6265 121.7 74.6303 121.298 74.7966C117.441 76.3418 112.863 78.5283 110.321 82.6834C109.289 84.4326 108.617 86.3708 108.344 88.3837C107.772 92.3893 108.524 96.4723 110.486 100.011C110.664 100.332 110.94 100.587 111.274 100.739C108.436 104.418 105.167 107.743 101.537 110.643C101.22 109.317 100.819 108.013 100.337 106.738C98.7246 102.504 96.009 99.4859 92.7071 98.2158C91.4579 97.7457 90.1367 97.4957 88.8021 97.4771C88.5466 97.4721 88.2953 97.4121 88.0651 97.3013C87.8349 97.1904 87.6314 97.0312 87.4683 96.8345C87.3052 96.6379 87.1864 96.4084 87.12 96.1617C87.0535 95.9149 87.0411 95.6568 87.0834 95.4048V95.3858C87.5533 92.2658 87.276 89.1859 86.3151 86.5189C86.2253 86.2831 86.0864 86.069 85.9077 85.8908C85.729 85.7127 85.5145 85.5745 85.2784 85.4854C85.0423 85.3964 84.79 85.3585 84.5381 85.3743C84.2863 85.3901 84.0407 85.4591 83.8175 85.577L83.4429 85.778C83.0659 85.9738 82.7724 86.2995 82.6168 86.6948C82.4612 87.0901 82.4539 87.5284 82.5963 87.9286C83.3359 90.1401 83.5241 92.4987 83.1444 94.7995C83.0009 95.6909 82.8015 96.5725 82.5476 97.439C82.0777 97.8899 81.7009 98.2434 81.2438 98.6857C79.1801 99.1853 77.2032 99.6171 75.3406 99.5494C74.9207 99.5319 74.5081 99.6628 74.1749 99.9189C73.8417 100.175 73.6093 100.54 73.5182 100.951L73.4315 101.374C73.3773 101.628 73.3792 101.89 73.437 102.143C73.4949 102.396 73.6073 102.633 73.7663 102.838C73.9254 103.043 74.1273 103.21 74.3579 103.329C74.5885 103.447 74.8423 103.514 75.1014 103.525C77.6837 103.639 80.2066 103.036 82.6534 102.439C85.7711 101.681 88.7364 100.972 91.289 101.941C94.2925 103.093 95.9138 106.336 96.6249 108.158C97.2175 109.81 97.6984 111.5 98.0642 113.217C88.473 119.775 77.1235 123.28 65.5049 123.273V129.3H66.6732C78.3995 129.101 89.8416 125.658 99.7299 119.351C100.901 118.612 102.036 117.836 103.136 117.023C113.099 109.736 120.737 99.7195 125.128 88.1834C129.519 76.6472 130.473 64.0859 127.876 52.0186ZM113.34 97.8793C111.905 95.1201 111.368 91.9817 111.803 88.9023C111.998 87.3598 112.508 85.8737 113.299 84.5355C115.056 81.6568 118.146 79.9296 121.831 78.3844C120.243 85.3559 117.362 91.9682 113.34 97.8793Z"/>
</mask>
<path d="M127.876 52.0186C127.397 49.7324 126.781 47.4769 126.033 45.2642C117.723 20.3717 94.5126 2.32886 66.9823 1.69385H65.5133V7.70531C71.396 7.70341 77.2442 8.60286 82.8545 10.3724C83.0247 12.3027 82.9214 14.2474 82.5476 16.1489C82.3108 17.3217 81.9708 18.4713 81.5316 19.5843C81.4935 19.7007 81.4448 19.815 81.4067 19.9208C79.641 24.0941 76.5445 27.5659 72.5997 29.7953C72.3406 29.9431 72.1472 30.1837 72.0584 30.4684C71.9697 30.7532 71.9921 31.061 72.1213 31.3299L72.6293 32.3883C72.7013 32.5316 72.8012 32.659 72.9233 32.7631C73.0454 32.8671 73.1871 32.9456 73.34 32.9939C73.4929 33.0423 73.6539 33.0595 73.8136 33.0445C73.9733 33.0296 74.1284 32.9828 74.2696 32.9069C78.927 30.2871 82.583 26.1953 84.6641 21.2734V21.2628C84.776 20.9807 84.993 20.7531 85.2694 20.6279C85.5458 20.5028 85.86 20.4898 86.1458 20.5918C88.7936 21.4851 91.3377 22.8271 93.7167 24.1437C93.8517 24.2192 94.0002 24.2674 94.1537 24.2855C94.3073 24.3037 94.4629 24.2913 94.6117 24.2493C94.7605 24.2072 94.8996 24.1362 95.021 24.0404C95.1423 23.9445 95.2436 23.8257 95.319 23.6907L95.8862 22.6641C95.9617 22.5287 96.0097 22.3797 96.0273 22.2258C96.045 22.0718 96.032 21.9158 95.9891 21.7669C95.9462 21.6179 95.8743 21.4789 95.7774 21.3579C95.6806 21.2369 95.5607 21.1362 95.4248 21.0617C92.796 19.6033 89.9831 18.1153 86.9585 17.1374C86.6993 17.0517 86.4785 16.8774 86.3349 16.6452C86.1913 16.4129 86.1341 16.1376 86.1733 15.8673C86.3908 14.4672 86.4836 13.0505 86.4505 11.6339C87.5363 12.0382 88.5904 12.4975 89.6466 12.978C90.7027 13.4585 91.7759 13.9962 92.8214 14.5613C99.3982 18.0941 105.23 22.8644 109.997 28.6099C109.963 28.6939 109.938 28.7812 109.921 28.8703C108.711 34.215 107.214 38.8188 103.76 41.7949C102.248 43.0589 100.496 44.0023 98.6082 44.5678C94.6408 45.8073 90.3762 45.7099 86.4696 44.2905C85.9148 44.1045 85.309 44.1441 84.7832 44.4008C84.2573 44.6576 83.8535 45.1109 83.659 45.6628C83.4644 46.2148 83.4948 46.8211 83.7434 47.3509C83.9921 47.8806 84.4391 48.2913 84.988 48.4943C89.8068 50.239 95.0645 50.3565 99.9564 48.8288C102.422 48.0805 104.71 46.8405 106.683 45.1838C110.368 41.996 112.258 37.4874 113.456 33.2074C117.596 39.3333 120.512 46.2017 122.045 53.4347C121.471 54.0326 120.795 54.5236 120.049 54.8847C119.023 55.3461 117.774 55.4985 116.701 55.5662C115.431 55.6615 114.161 55.6805 112.815 55.6911C110.74 55.7102 108.581 55.7377 106.442 56.0658C101.961 56.7452 98.4304 58.7519 96.4937 61.7068C95.764 62.8252 95.2347 64.0623 94.9295 65.3624C94.8696 65.6106 94.7573 65.8432 94.6001 66.0445C94.443 66.2457 94.2446 66.4111 94.0182 66.5293C93.7919 66.6476 93.5429 66.7161 93.2879 66.7302C93.033 66.7444 92.7779 66.7038 92.5399 66.6112C92.5399 66.6112 92.5399 66.6112 92.5209 66.5922C89.5746 65.4682 86.5056 65.0745 83.7032 65.4407C83.4521 65.4772 83.2117 65.5667 82.9978 65.7032C82.7839 65.8398 82.6015 66.0202 82.4626 66.2325C82.3237 66.4449 82.2315 66.6843 82.1922 66.935C82.1528 67.1856 82.1672 67.4418 82.2343 67.6865L82.3507 68.0887C82.462 68.4987 82.7168 68.855 83.0688 69.0928C83.4208 69.3306 83.8465 69.434 84.2683 69.3841C86.4082 69.1068 88.7788 69.4222 91.1007 70.3155C91.9414 70.6393 92.7589 71.0205 93.5474 71.4564C93.884 72.0046 94.1528 72.4449 94.4893 73.0016C94.5274 75.1183 94.5359 77.1482 94.066 78.9411C93.9572 79.3481 93.9959 79.7804 94.1752 80.1617C94.3546 80.5429 94.663 80.8483 95.046 81.0239L95.4396 81.206C95.6757 81.3119 95.932 81.3652 96.1907 81.3623C96.4495 81.3593 96.7045 81.3001 96.938 81.1887C97.1716 81.0774 97.3782 80.9165 97.5434 80.7174C97.7086 80.5182 97.8285 80.2855 97.8949 80.0354C98.5658 77.5313 98.5087 74.9405 98.4621 72.4258C98.3838 69.2106 98.3267 66.1688 99.8146 63.8849C101.588 61.1882 105.106 60.2971 107.038 59.9986C108.92 59.7214 110.829 59.6917 112.863 59.6727C114.207 59.6536 115.589 59.6346 116.98 59.5393C118.411 59.4419 120.1 59.2409 121.702 58.5021C122.085 58.3276 122.457 58.129 122.815 57.9073C123.144 60.4206 123.307 62.9527 123.304 65.4873C123.309 68.6021 123.058 71.712 122.555 74.786C122.151 74.6265 121.7 74.6303 121.298 74.7966C117.441 76.3418 112.863 78.5283 110.321 82.6834C109.289 84.4326 108.617 86.3708 108.344 88.3837C107.772 92.3893 108.524 96.4723 110.486 100.011C110.664 100.332 110.94 100.587 111.274 100.739C108.436 104.418 105.167 107.743 101.537 110.643C101.22 109.317 100.819 108.013 100.337 106.738C98.7246 102.504 96.009 99.4859 92.7071 98.2158C91.4579 97.7457 90.1367 97.4957 88.8021 97.4771C88.5466 97.4721 88.2953 97.4121 88.0651 97.3013C87.8349 97.1904 87.6314 97.0312 87.4683 96.8345C87.3052 96.6379 87.1864 96.4084 87.12 96.1617C87.0535 95.9149 87.0411 95.6568 87.0834 95.4048V95.3858C87.5533 92.2658 87.276 89.1859 86.3151 86.5189C86.2253 86.2831 86.0864 86.069 85.9077 85.8908C85.729 85.7127 85.5145 85.5745 85.2784 85.4854C85.0423 85.3964 84.79 85.3585 84.5381 85.3743C84.2863 85.3901 84.0407 85.4591 83.8175 85.577L83.4429 85.778C83.0659 85.9738 82.7724 86.2995 82.6168 86.6948C82.4612 87.0901 82.4539 87.5284 82.5963 87.9286C83.3359 90.1401 83.5241 92.4987 83.1444 94.7995C83.0009 95.6909 82.8015 96.5725 82.5476 97.439C82.0777 97.8899 81.7009 98.2434 81.2438 98.6857C79.1801 99.1853 77.2032 99.6171 75.3406 99.5494C74.9207 99.5319 74.5081 99.6628 74.1749 99.9189C73.8417 100.175 73.6093 100.54 73.5182 100.951L73.4315 101.374C73.3773 101.628 73.3792 101.89 73.437 102.143C73.4949 102.396 73.6073 102.633 73.7663 102.838C73.9254 103.043 74.1273 103.21 74.3579 103.329C74.5885 103.447 74.8423 103.514 75.1014 103.525C77.6837 103.639 80.2066 103.036 82.6534 102.439C85.7711 101.681 88.7364 100.972 91.289 101.941C94.2925 103.093 95.9138 106.336 96.6249 108.158C97.2175 109.81 97.6984 111.5 98.0642 113.217C88.473 119.775 77.1235 123.28 65.5049 123.273V129.3H66.6732C78.3995 129.101 89.8416 125.658 99.7299 119.351C100.901 118.612 102.036 117.836 103.136 117.023C113.099 109.736 120.737 99.7195 125.128 88.1834C129.519 76.6472 130.473 64.0859 127.876 52.0186ZM113.34 97.8793C111.905 95.1201 111.368 91.9817 111.803 88.9023C111.998 87.3598 112.508 85.8737 113.299 84.5355C115.056 81.6568 118.146 79.9296 121.831 78.3844C120.243 85.3559 117.362 91.9682 113.34 97.8793Z" fill="#25BFB0"/>
<path d="M127.876 52.0186C127.397 49.7324 126.781 47.4769 126.033 45.2642C117.723 20.3717 94.5126 2.32886 66.9823 1.69385H65.5133V7.70531C71.396 7.70341 77.2442 8.60286 82.8545 10.3724C83.0247 12.3027 82.9214 14.2474 82.5476 16.1489C82.3108 17.3217 81.9708 18.4713 81.5316 19.5843C81.4935 19.7007 81.4448 19.815 81.4067 19.9208C79.641 24.0941 76.5445 27.5659 72.5997 29.7953C72.3406 29.9431 72.1472 30.1837 72.0584 30.4684C71.9697 30.7532 71.9921 31.061 72.1213 31.3299L72.6293 32.3883C72.7013 32.5316 72.8012 32.659 72.9233 32.7631C73.0454 32.8671 73.1871 32.9456 73.34 32.9939C73.4929 33.0423 73.6539 33.0595 73.8136 33.0445C73.9733 33.0296 74.1284 32.9828 74.2696 32.9069C78.927 30.2871 82.583 26.1953 84.6641 21.2734V21.2628C84.776 20.9807 84.993 20.7531 85.2694 20.6279C85.5458 20.5028 85.86 20.4898 86.1458 20.5918C88.7936 21.4851 91.3377 22.8271 93.7167 24.1437C93.8517 24.2192 94.0002 24.2674 94.1537 24.2855C94.3073 24.3037 94.4629 24.2913 94.6117 24.2493C94.7605 24.2072 94.8996 24.1362 95.021 24.0404C95.1423 23.9445 95.2436 23.8257 95.319 23.6907L95.8862 22.6641C95.9617 22.5287 96.0097 22.3797 96.0273 22.2258C96.045 22.0718 96.032 21.9158 95.9891 21.7669C95.9462 21.6179 95.8743 21.4789 95.7774 21.3579C95.6806 21.2369 95.5607 21.1362 95.4248 21.0617C92.796 19.6033 89.9831 18.1153 86.9585 17.1374C86.6993 17.0517 86.4785 16.8774 86.3349 16.6452C86.1913 16.4129 86.1341 16.1376 86.1733 15.8673C86.3908 14.4672 86.4836 13.0505 86.4505 11.6339C87.5363 12.0382 88.5904 12.4975 89.6466 12.978C90.7027 13.4585 91.7759 13.9962 92.8214 14.5613C99.3982 18.0941 105.23 22.8644 109.997 28.6099C109.963 28.6939 109.938 28.7812 109.921 28.8703C108.711 34.215 107.214 38.8188 103.76 41.7949C102.248 43.0589 100.496 44.0023 98.6082 44.5678C94.6408 45.8073 90.3762 45.7099 86.4696 44.2905C85.9148 44.1045 85.309 44.1441 84.7832 44.4008C84.2573 44.6576 83.8535 45.1109 83.659 45.6628C83.4644 46.2148 83.4948 46.8211 83.7434 47.3509C83.9921 47.8806 84.4391 48.2913 84.988 48.4943C89.8068 50.239 95.0645 50.3565 99.9564 48.8288C102.422 48.0805 104.71 46.8405 106.683 45.1838C110.368 41.996 112.258 37.4874 113.456 33.2074C117.596 39.3333 120.512 46.2017 122.045 53.4347C121.471 54.0326 120.795 54.5236 120.049 54.8847C119.023 55.3461 117.774 55.4985 116.701 55.5662C115.431 55.6615 114.161 55.6805 112.815 55.6911C110.74 55.7102 108.581 55.7377 106.442 56.0658C101.961 56.7452 98.4304 58.7519 96.4937 61.7068C95.764 62.8252 95.2347 64.0623 94.9295 65.3624C94.8696 65.6106 94.7573 65.8432 94.6001 66.0445C94.443 66.2457 94.2446 66.4111 94.0182 66.5293C93.7919 66.6476 93.5429 66.7161 93.2879 66.7302C93.033 66.7444 92.7779 66.7038 92.5399 66.6112C92.5399 66.6112 92.5399 66.6112 92.5209 66.5922C89.5746 65.4682 86.5056 65.0745 83.7032 65.4407C83.4521 65.4772 83.2117 65.5667 82.9978 65.7032C82.7839 65.8398 82.6015 66.0202 82.4626 66.2325C82.3237 66.4449 82.2315 66.6843 82.1922 66.935C82.1528 67.1856 82.1672 67.4418 82.2343 67.6865L82.3507 68.0887C82.462 68.4987 82.7168 68.855 83.0688 69.0928C83.4208 69.3306 83.8465 69.434 84.2683 69.3841C86.4082 69.1068 88.7788 69.4222 91.1007 70.3155C91.9414 70.6393 92.7589 71.0205 93.5474 71.4564C93.884 72.0046 94.1528 72.4449 94.4893 73.0016C94.5274 75.1183 94.5359 77.1482 94.066 78.9411C93.9572 79.3481 93.9959 79.7804 94.1752 80.1617C94.3546 80.5429 94.663 80.8483 95.046 81.0239L95.4396 81.206C95.6757 81.3119 95.932 81.3652 96.1907 81.3623C96.4495 81.3593 96.7045 81.3001 96.938 81.1887C97.1716 81.0774 97.3782 80.9165 97.5434 80.7174C97.7086 80.5182 97.8285 80.2855 97.8949 80.0354C98.5658 77.5313 98.5087 74.9405 98.4621 72.4258C98.3838 69.2106 98.3267 66.1688 99.8146 63.8849C101.588 61.1882 105.106 60.2971 107.038 59.9986C108.92 59.7214 110.829 59.6917 112.863 59.6727C114.207 59.6536 115.589 59.6346 116.98 59.5393C118.411 59.4419 120.1 59.2409 121.702 58.5021C122.085 58.3276 122.457 58.129 122.815 57.9073C123.144 60.4206 123.307 62.9527 123.304 65.4873C123.309 68.6021 123.058 71.712 122.555 74.786C122.151 74.6265 121.7 74.6303 121.298 74.7966C117.441 76.3418 112.863 78.5283 110.321 82.6834C109.289 84.4326 108.617 86.3708 108.344 88.3837C107.772 92.3893 108.524 96.4723 110.486 100.011C110.664 100.332 110.94 100.587 111.274 100.739C108.436 104.418 105.167 107.743 101.537 110.643C101.22 109.317 100.819 108.013 100.337 106.738C98.7246 102.504 96.009 99.4859 92.7071 98.2158C91.4579 97.7457 90.1367 97.4957 88.8021 97.4771C88.5466 97.4721 88.2953 97.4121 88.0651 97.3013C87.8349 97.1904 87.6314 97.0312 87.4683 96.8345C87.3052 96.6379 87.1864 96.4084 87.12 96.1617C87.0535 95.9149 87.0411 95.6568 87.0834 95.4048V95.3858C87.5533 92.2658 87.276 89.1859 86.3151 86.5189C86.2253 86.2831 86.0864 86.069 85.9077 85.8908C85.729 85.7127 85.5145 85.5745 85.2784 85.4854C85.0423 85.3964 84.79 85.3585 84.5381 85.3743C84.2863 85.3901 84.0407 85.4591 83.8175 85.577L83.4429 85.778C83.0659 85.9738 82.7724 86.2995 82.6168 86.6948C82.4612 87.0901 82.4539 87.5284 82.5963 87.9286C83.3359 90.1401 83.5241 92.4987 83.1444 94.7995C83.0009 95.6909 82.8015 96.5725 82.5476 97.439C82.0777 97.8899 81.7009 98.2434 81.2438 98.6857C79.1801 99.1853 77.2032 99.6171 75.3406 99.5494C74.9207 99.5319 74.5081 99.6628 74.1749 99.9189C73.8417 100.175 73.6093 100.54 73.5182 100.951L73.4315 101.374C73.3773 101.628 73.3792 101.89 73.437 102.143C73.4949 102.396 73.6073 102.633 73.7663 102.838C73.9254 103.043 74.1273 103.21 74.3579 103.329C74.5885 103.447 74.8423 103.514 75.1014 103.525C77.6837 103.639 80.2066 103.036 82.6534 102.439C85.7711 101.681 88.7364 100.972 91.289 101.941C94.2925 103.093 95.9138 106.336 96.6249 108.158C97.2175 109.81 97.6984 111.5 98.0642 113.217C88.473 119.775 77.1235 123.28 65.5049 123.273V129.3H66.6732C78.3995 129.101 89.8416 125.658 99.7299 119.351C100.901 118.612 102.036 117.836 103.136 117.023C113.099 109.736 120.737 99.7195 125.128 88.1834C129.519 76.6472 130.473 64.0859 127.876 52.0186ZM113.34 97.8793C111.905 95.1201 111.368 91.9817 111.803 88.9023C111.998 87.3598 112.508 85.8737 113.299 84.5355C115.056 81.6568 118.146 79.9296 121.831 78.3844C120.243 85.3559 117.362 91.9682 113.34 97.8793Z" stroke="#25BFB0" stroke-width="1.4" mask="url(#path-2-outside-1_1003_16)"/>
</svg>
